<mxfile host="app.diagrams.net" agent="Mozilla/5.0 (Windows NT 10.0; Win64; x64) AppleWebKit/537.36 (KHTML, like Gecko) Chrome/139.0.0.0 Safari/537.36" version="28.1.1">
  <diagram name="Page-1" id="2YBvvXClWsGukQMizWep">
    <mxGraphModel dx="666" dy="644" grid="1" gridSize="10" guides="1" tooltips="1" connect="1" arrows="1" fold="1" page="1" pageScale="1" pageWidth="850" pageHeight="1100" math="0" shadow="0">
      <root>
        <mxCell id="0" />
        <mxCell id="1" parent="0" />
        <mxCell id="aM9ryv3xv72pqoxQDRHE-1" value="&lt;u&gt;:Admin&lt;/u&gt;" style="shape=umlLifeline;perimeter=lifelinePerimeter;whiteSpace=wrap;html=1;container=0;dropTarget=0;collapsible=0;recursiveResize=0;outlineConnect=0;portConstraint=eastwest;newEdgeStyle={&quot;edgeStyle&quot;:&quot;elbowEdgeStyle&quot;,&quot;elbow&quot;:&quot;vertical&quot;,&quot;curved&quot;:0,&quot;rounded&quot;:0};" parent="1" vertex="1">
          <mxGeometry x="40" y="40" width="100" height="360" as="geometry" />
        </mxCell>
        <mxCell id="aM9ryv3xv72pqoxQDRHE-2" value="" style="html=1;points=[];perimeter=orthogonalPerimeter;outlineConnect=0;targetShapes=umlLifeline;portConstraint=eastwest;newEdgeStyle={&quot;edgeStyle&quot;:&quot;elbowEdgeStyle&quot;,&quot;elbow&quot;:&quot;vertical&quot;,&quot;curved&quot;:0,&quot;rounded&quot;:0};" parent="aM9ryv3xv72pqoxQDRHE-1" vertex="1">
          <mxGeometry x="45" y="70" width="10" height="220" as="geometry" />
        </mxCell>
        <mxCell id="6mN2efpHynHi5hd4vbk3-30" value="" style="shape=umlDestroy;whiteSpace=wrap;html=1;strokeWidth=3;targetShapes=umlLifeline;" parent="aM9ryv3xv72pqoxQDRHE-1" vertex="1">
          <mxGeometry x="35" y="320" width="30" height="30" as="geometry" />
        </mxCell>
        <mxCell id="aM9ryv3xv72pqoxQDRHE-5" value="&lt;u&gt;:System&lt;/u&gt;" style="shape=umlLifeline;perimeter=lifelinePerimeter;whiteSpace=wrap;html=1;container=0;dropTarget=0;collapsible=0;recursiveResize=0;outlineConnect=0;portConstraint=eastwest;newEdgeStyle={&quot;edgeStyle&quot;:&quot;elbowEdgeStyle&quot;,&quot;elbow&quot;:&quot;vertical&quot;,&quot;curved&quot;:0,&quot;rounded&quot;:0};" parent="1" vertex="1">
          <mxGeometry x="220" y="40" width="100" height="320" as="geometry" />
        </mxCell>
        <mxCell id="aM9ryv3xv72pqoxQDRHE-6" value="" style="html=1;points=[];perimeter=orthogonalPerimeter;outlineConnect=0;targetShapes=umlLifeline;portConstraint=eastwest;newEdgeStyle={&quot;edgeStyle&quot;:&quot;elbowEdgeStyle&quot;,&quot;elbow&quot;:&quot;vertical&quot;,&quot;curved&quot;:0,&quot;rounded&quot;:0};" parent="aM9ryv3xv72pqoxQDRHE-5" vertex="1">
          <mxGeometry x="45" y="70" width="10" height="210" as="geometry" />
        </mxCell>
        <mxCell id="aM9ryv3xv72pqoxQDRHE-7" value="Login(username, password)" style="html=1;verticalAlign=bottom;endArrow=block;edgeStyle=elbowEdgeStyle;elbow=vertical;curved=0;rounded=0;" parent="1" edge="1">
          <mxGeometry relative="1" as="geometry">
            <mxPoint x="95" y="113" as="sourcePoint" />
            <Array as="points">
              <mxPoint x="180" y="113" />
            </Array>
            <mxPoint x="265" y="113" as="targetPoint" />
          </mxGeometry>
        </mxCell>
        <mxCell id="aM9ryv3xv72pqoxQDRHE-8" value="LoginPage" style="html=1;verticalAlign=bottom;endArrow=open;dashed=1;endSize=8;edgeStyle=elbowEdgeStyle;elbow=vertical;curved=0;rounded=0;" parent="1" edge="1">
          <mxGeometry x="-0.1176" y="-5" relative="1" as="geometry">
            <mxPoint x="95" y="137" as="targetPoint" />
            <Array as="points">
              <mxPoint x="190" y="137" />
            </Array>
            <mxPoint x="265" y="137" as="sourcePoint" />
            <mxPoint as="offset" />
          </mxGeometry>
        </mxCell>
        <mxCell id="6mN2efpHynHi5hd4vbk3-1" value="&lt;u&gt;:Blockchain&lt;/u&gt;" style="shape=umlLifeline;perimeter=lifelinePerimeter;whiteSpace=wrap;html=1;container=0;dropTarget=0;collapsible=0;recursiveResize=0;outlineConnect=0;portConstraint=eastwest;newEdgeStyle={&quot;edgeStyle&quot;:&quot;elbowEdgeStyle&quot;,&quot;elbow&quot;:&quot;vertical&quot;,&quot;curved&quot;:0,&quot;rounded&quot;:0};" parent="1" vertex="1">
          <mxGeometry x="374" y="40" width="100" height="370" as="geometry" />
        </mxCell>
        <mxCell id="6mN2efpHynHi5hd4vbk3-2" value="" style="html=1;points=[];perimeter=orthogonalPerimeter;outlineConnect=0;targetShapes=umlLifeline;portConstraint=eastwest;newEdgeStyle={&quot;edgeStyle&quot;:&quot;elbowEdgeStyle&quot;,&quot;elbow&quot;:&quot;vertical&quot;,&quot;curved&quot;:0,&quot;rounded&quot;:0};" parent="6mN2efpHynHi5hd4vbk3-1" vertex="1">
          <mxGeometry x="46" y="200" width="10" height="70" as="geometry" />
        </mxCell>
        <mxCell id="6mN2efpHynHi5hd4vbk3-9" value="LoginDetails(username, password)" style="html=1;verticalAlign=bottom;endArrow=block;edgeStyle=elbowEdgeStyle;elbow=vertical;curved=0;rounded=0;" parent="1" edge="1">
          <mxGeometry relative="1" as="geometry">
            <mxPoint x="96" y="159" as="sourcePoint" />
            <Array as="points">
              <mxPoint x="181" y="159" />
            </Array>
            <mxPoint x="266" y="159" as="targetPoint" />
            <mxPoint as="offset" />
          </mxGeometry>
        </mxCell>
        <mxCell id="6mN2efpHynHi5hd4vbk3-16" value="LoginSuccess" style="html=1;verticalAlign=bottom;endArrow=open;dashed=1;endSize=8;edgeStyle=elbowEdgeStyle;elbow=vertical;curved=0;rounded=0;" parent="1" edge="1">
          <mxGeometry relative="1" as="geometry">
            <mxPoint x="94" y="182" as="targetPoint" />
            <Array as="points">
              <mxPoint x="189" y="182" />
            </Array>
            <mxPoint x="264" y="182" as="sourcePoint" />
          </mxGeometry>
        </mxCell>
        <mxCell id="6mN2efpHynHi5hd4vbk3-22" value="AdminDashboard" style="html=1;verticalAlign=bottom;endArrow=open;dashed=1;endSize=8;edgeStyle=elbowEdgeStyle;elbow=horizontal;curved=0;rounded=0;" parent="1" edge="1">
          <mxGeometry relative="1" as="geometry">
            <mxPoint x="96" y="206" as="targetPoint" />
            <Array as="points">
              <mxPoint x="191" y="206" />
            </Array>
            <mxPoint x="266" y="206" as="sourcePoint" />
          </mxGeometry>
        </mxCell>
        <mxCell id="6mN2efpHynHi5hd4vbk3-26" value="ManageCandidate(candidateID,&amp;nbsp;&lt;div&gt;candidateDetails)&lt;/div&gt;" style="html=1;verticalAlign=bottom;endArrow=block;edgeStyle=elbowEdgeStyle;elbow=vertical;curved=0;rounded=0;" parent="1" edge="1">
          <mxGeometry relative="1" as="geometry">
            <mxPoint x="96" y="241" as="sourcePoint" />
            <Array as="points">
              <mxPoint x="181" y="241" />
            </Array>
            <mxPoint x="266" y="241" as="targetPoint" />
          </mxGeometry>
        </mxCell>
        <mxCell id="6mN2efpHynHi5hd4vbk3-35" value="" style="curved=1;endArrow=classic;html=1;rounded=0;fontSize=12;startSize=8;endSize=8;" parent="1" edge="1">
          <mxGeometry width="50" height="50" relative="1" as="geometry">
            <mxPoint x="276" y="162" as="sourcePoint" />
            <mxPoint x="275" y="172" as="targetPoint" />
            <Array as="points">
              <mxPoint x="310" y="161" />
            </Array>
          </mxGeometry>
        </mxCell>
        <mxCell id="6mN2efpHynHi5hd4vbk3-36" value="&lt;font style=&quot;font-size: 10px;&quot;&gt;[Verify Credentials]&lt;/font&gt;" style="text;html=1;align=center;verticalAlign=middle;resizable=0;points=[];autosize=1;strokeColor=none;fillColor=none;fontSize=16;" parent="1" vertex="1">
          <mxGeometry x="270" y="130" width="110" height="30" as="geometry" />
        </mxCell>
        <mxCell id="6mN2efpHynHi5hd4vbk3-37" value="LogCandidateInfo()" style="html=1;verticalAlign=bottom;endArrow=block;edgeStyle=elbowEdgeStyle;elbow=vertical;curved=0;rounded=0;" parent="1" edge="1">
          <mxGeometry relative="1" as="geometry">
            <mxPoint x="275" y="241" as="sourcePoint" />
            <Array as="points">
              <mxPoint x="360" y="241" />
            </Array>
            <mxPoint x="420" y="241" as="targetPoint" />
          </mxGeometry>
        </mxCell>
        <mxCell id="6mN2efpHynHi5hd4vbk3-43" value="StartElection(electionID,&amp;nbsp;&lt;div&gt;startTime)&lt;/div&gt;" style="html=1;verticalAlign=bottom;endArrow=block;edgeStyle=elbowEdgeStyle;elbow=vertical;curved=0;rounded=0;" parent="1" edge="1">
          <mxGeometry relative="1" as="geometry">
            <mxPoint x="95" y="279" as="sourcePoint" />
            <Array as="points">
              <mxPoint x="180" y="279" />
            </Array>
            <mxPoint x="265" y="279" as="targetPoint" />
          </mxGeometry>
        </mxCell>
        <mxCell id="6mN2efpHynHi5hd4vbk3-44" value="RecordElectionStartTime()" style="html=1;verticalAlign=bottom;endArrow=block;edgeStyle=elbowEdgeStyle;elbow=vertical;curved=0;rounded=0;" parent="1" edge="1">
          <mxGeometry relative="1" as="geometry">
            <mxPoint x="276" y="278" as="sourcePoint" />
            <Array as="points">
              <mxPoint x="366" y="278" />
            </Array>
            <mxPoint x="420" y="278" as="targetPoint" />
          </mxGeometry>
        </mxCell>
        <mxCell id="6mN2efpHynHi5hd4vbk3-45" value="StopElection(electionID, endTime)" style="html=1;verticalAlign=bottom;endArrow=block;edgeStyle=elbowEdgeStyle;elbow=vertical;curved=0;rounded=0;" parent="1" edge="1">
          <mxGeometry relative="1" as="geometry">
            <mxPoint x="95" y="308" as="sourcePoint" />
            <Array as="points">
              <mxPoint x="180" y="308" />
            </Array>
            <mxPoint x="265" y="308" as="targetPoint" />
          </mxGeometry>
        </mxCell>
        <mxCell id="6mN2efpHynHi5hd4vbk3-46" value="RecordElectionEndTime()" style="html=1;verticalAlign=bottom;endArrow=block;edgeStyle=elbowEdgeStyle;elbow=vertical;curved=0;rounded=0;" parent="1" edge="1">
          <mxGeometry relative="1" as="geometry">
            <mxPoint x="275" y="309" as="sourcePoint" />
            <Array as="points">
              <mxPoint x="365" y="309" />
            </Array>
            <mxPoint x="419" y="309" as="targetPoint" />
          </mxGeometry>
        </mxCell>
      </root>
    </mxGraphModel>
  </diagram>
</mxfile>
